<svg width="200" height="200" viewBox="0 0 200 200" xmlns="http://www.w3.org/2000/svg">
  <!-- Star shape representing KubeStellar -->
  <defs>
    <linearGradient id="starGradient" x1="0%" y1="0%" x2="100%" y2="100%">
      <stop offset="0%" style="stop-color:#326ce5;stop-opacity:1" />
      <stop offset="100%" style="stop-color:#1e44a3;stop-opacity:1" />
    </linearGradient>
  </defs>
  
  <!-- Kubernetes-style hexagon background -->
  <path d="M50 30 L150 30 L190 100 L150 170 L50 170 L10 100 Z" 
        fill="url(#starGradient)" 
        stroke="#1e44a3" 
        stroke-width="2"/>
  
  <!-- Central star -->
  <path d="M100 50 L112 85 L150 85 L122 108 L134 143 L100 120 L66 143 L78 108 L50 85 L88 85 Z" 
        fill="white" 
        opacity="0.9"/>
  
  <!-- Small stars representing clusters -->
  <circle cx="50" cy="60" r="4" fill="white" opacity="0.8"/>
  <circle cx="150" cy="60" r="4" fill="white" opacity="0.8"/>
  <circle cx="50" cy="140" r="4" fill="white" opacity="0.8"/>
  <circle cx="150" cy="140" r="4" fill="white" opacity="0.8"/>
  
  <!-- Connection lines -->
  <line x1="50" y1="60" x2="100" y2="85" stroke="white" stroke-width="1" opacity="0.5"/>
  <line x1="150" y1="60" x2="100" y2="85" stroke="white" stroke-width="1" opacity="0.5"/>
  <line x1="50" y1="140" x2="100" y2="115" stroke="white" stroke-width="1" opacity="0.5"/>
  <line x1="150" y1="140" x2="100" y2="115" stroke="white" stroke-width="1" opacity="0.5"/>
</svg>